<?xml version="1.0" encoding="utf-8"?>
<!-- Generator: Adobe Illustrator 25.0.0, SVG Export Plug-In . SVG Version: 6.00 Build 0)  -->
<svg version="1.1" xmlns="http://www.w3.org/2000/svg" xmlns:xlink="http://www.w3.org/1999/xlink" x="0px" y="0px"
	 viewBox="0 0 83.2 150.5" width="83.2" height="150.5" style="enable-background:new 0 0 83.2 150.5;" xml:space="preserve">
<style type="text/css">
	.st0{display:none;}
	.st1{fill:#285E61;}
</style>
<g id="Capa_1" class="st0">
</g>
<g id="Capa_2">
	<g>
		<g>
			<path class="st1" d="M49,112.3V99.6H14.7c-4.3,0-7.6-1-9.7-2.9c-2.2-2-3.2-4.6-3.2-8c0-0.9,0.2-1.7,0.5-2.6
				c0.3-0.9,0.8-1.8,1.4-2.8c0.6-1,1.3-1.9,2-2.8c0.7-0.9,1.5-2,2.5-3.3l36.2-48.5c2.4-3.2,4.3-5.5,5.8-6.9c1.5-1.4,3.4-2.2,5.5-2.2
				c6.9,0,10.4,4,10.4,11.9v52.9H69c3.5,0,6.3,0.5,8.4,1.4s3.2,3.1,3.2,6.3c0,2.6-0.9,4.6-2.6,5.8c-1.7,1.2-4.3,1.8-7.8,1.8h-4.2
				v12.7c0,3.5-0.8,6.1-2.3,7.8c-1.5,1.7-3.6,2.6-6.2,2.6c-2.6,0-4.6-0.9-6.2-2.6S49,115.7,49,112.3z M19.6,84.3H49V44.5L19.6,84.3z
				"/>
		</g>
	</g>
</g>
</svg>
