<svg xmlns="http://www.w3.org/2000/svg" id="Layer_1" data-name="Layer 1" viewBox="0 0 700 700" width="700" height="700">
  <defs>
    <style>
      .cls-1{fill:#131223}.cls-4{fill:#131324;fill-rule:evenodd}
    </style>
  </defs>
  <path d="M0 0h700v700H0z" style="fill:#fedc00"/>
  <path d="m455.23 128.67-.26-.16-.61-.19c.25.21.55.33.88.34ZM459.11 156.2l-.3.08.3-.08Z" class="cls-1"/>
  <path d="M455.34 128.63s-.07-.01-.1-.02v.06c.04 0 .07-.02.1-.04Z" class="cls-1"/>
  <path d="M455.23 128.68h.05v-.03l-.05.03ZM458.87 156.15l.44-.25.17-.09.15-.16c-.28.12-.54.29-.76.51ZM455.99 129.28l-.44-.41-.3-.16c.16.28.42.49.73.58ZM346.46 396.4c-.35.15-.65.39-.89.68l.27-.18c.19-.17.45-.37.61-.51ZM410.07 383.88c0-.39-.19-.32-.15 1.08 0-.11.05-.23.07-.34.03-.25.05-.49.08-.74ZM403.5 396.4c-.35.15-.65.39-.89.68l.27-.18c.19-.17.45-.37.61-.51ZM301.63 399.38c-.26-.23-.59-.38-.93-.44.28.14.56.27.75.37l.19.06ZM291.56 389.72c-.04-.41-.17-.8-.37-1.16.14.37.26.75.36 1.14v.02Z" class="cls-1"/>
  <path d="M359.27 217.04c-13.84 5.93-29.55 12.64-49.9 12.64a94.852 94.852 0 0 1-25.19-3.47l14.08 144.55c.5 6.04 3.25 11.68 7.71 15.78 4.46 4.11 10.3 6.39 16.36 6.38 0 0 19.96 1.04 26.62 1.04 7.17 0 28.67-1.04 28.67-1.04 6.06 0 11.9-2.28 16.36-6.38 4.46-4.11 7.21-9.74 7.71-15.78l15.08-159.73c-6.74-2.3-13.54-3.83-21.21-3.83-13.26 0-23.94 4.56-36.29 9.84Z" style="fill:#fff"/>
  <path d="m240.62 155.37.24.22.16.09c-.12-.12-.25-.23-.39-.32Z" class="cls-1"/>
  <path d="m481.9 142.03-2.12-10.69c-1.9-9.6-6.22-18.66-16.07-22.13-3.16-1.11-6.74-1.59-9.16-3.88-2.42-2.3-3.14-5.86-3.7-9.17-1.03-6.07-2.01-12.15-3.07-18.21-.92-5.21-1.64-11.06-4.03-15.84-3.11-6.42-9.56-10.17-15.98-12.65a91.146 91.146 0 0 0-10.05-3.11c-16.03-4.23-32.89-5.79-49.39-6.67a416.17 416.17 0 0 0-59.4.98c-14.7 1.34-30.18 2.95-44.16 8.04-5.11 1.86-10.37 4.1-14.25 8.04-4.76 4.85-6.32 12.34-2.84 18.39 2.47 4.29 6.66 7.32 11.1 9.33a90.696 90.696 0 0 0 18.03 5.87c17.26 3.82 35.14 5.31 52.78 5.95 19.55.79 39.12.15 58.58-1.91 4.81-.53 9.61-1.16 14.41-1.9 5.64-.87 9.27-8.25 7.6-13.39-1.99-6.15-7.34-8.53-13.39-7.6-.89.14-1.78.27-2.67.4l-.64.09c-2.05.26-4.1.5-6.15.73-4.23.46-8.48.83-12.73 1.12-9.53.66-19.08.97-28.63.98-9.38 0-18.77-.26-28.13-.88-4.27-.28-8.53-.64-12.78-1.07-1.93-.2-3.86-.41-5.79-.65l-1.83-.23-.4-.06-1.9-.28c-3.89-.59-7.78-1.26-11.62-2.07-.39-.09-.74-.3-.98-.61s-.38-.7-.38-1.09.14-.78.38-1.09.6-.53.98-.61h.07a189.3 189.3 0 0 1 10.06-1.85c1.12-.18 2.25-.35 3.38-.52h.03c2.11-.14 4.23-.52 6.33-.77a402.35 402.35 0 0 1 54.99-1.94c8.91.26 17.82.78 26.69 1.68 1.91.2 3.81.4 5.7.64.73.09 1.46.19 2.19.28l1.47.21c4.29.64 8.56 1.42 12.81 2.33 6.29 1.37 14.37 1.81 17.18 8.71.89 2.19 1.29 4.62 1.79 6.92l.63 2.93c.02.05.03.11.04.16 1.48 6.91 2.97 13.82 4.45 20.74.11.51.11 1.04 0 1.55-.1.51-.31 1-.61 1.42-.3.43-.68.79-1.13 1.06-.44.27-.94.45-1.46.52h-.04l-.91.12-.9.12c-2.84.37-5.69.72-8.53 1.04-5.61.64-11.23 1.19-16.85 1.66-11.18.93-22.38 1.54-33.61 1.83-5.72.15-11.44.22-17.15.21-22.75-.02-45.48-1.34-68.08-3.96-2.45-.29-4.89-.6-7.34-.92 1.9.24-1.38-.19-2.04-.28-1.56-.22-3.11-.44-4.67-.68-5.22-.78-10.41-1.75-15.62-2.59-6.3-1.04-12.32-.52-18.02 2.59a26.183 26.183 0 0 0-10.85 11.25c-2.46 5.08-3.19 10.61-4.29 16.07-1.1 5.46-2.81 11.33-2.16 16.94 1.39 12.09 9.85 21.92 22.01 24.12 11.44 2.07 22.94 3.75 34.48 5.18a637.228 637.228 0 0 0 147.62.85c1.15-.13 2.32 0 3.42.39a7.83 7.83 0 0 1 2.91 1.82c.82.82 1.46 1.81 1.85 2.9.39 1.09.53 2.26.41 3.41l-1.15 11.19c-2.32 22.6-4.64 45.21-6.95 67.81-2.42 23.73-4.86 47.47-7.31 71.2l-2.07 20.05c-.66 6.58-.76 13.36-2.01 19.86-1.97 10.22-8.89 16.5-18.99 18.79-9.25 2.11-18.7 3.21-28.19 3.3-10.52.06-21.03-.41-31.55-.35-11.23.06-24.98-.97-33.65-9.33-7.61-7.34-8.67-18.83-9.7-28.77-1.38-13.15-2.75-26.31-4.11-39.46l-7.62-73.14-4.93-47.32c-.08-.78-.17-1.56-.24-2.34-.59-5.64-4.59-11.17-10.89-10.89-5.39.24-11.52 4.82-10.89 10.89l3.65 35.08 7.56 72.57c2.15 20.62 4.3 41.23 6.44 61.85.41 3.95.8 7.91 1.24 11.86 2.37 21.59 18.85 33.22 39.27 36.49 11.92 1.92 24.14 2.31 36.23 2.51 15.51.25 31.18.85 46.43-1.96 22.61-4.15 39.57-19.24 41.99-42.66.69-6.76 1.39-13.52 2.07-20.28 2.3-22.37 4.59-44.74 6.89-67.1l7.49-73.09 3.44-33.5a7.74 7.74 0 0 1 2-4.45 7.743 7.743 0 0 1 4.26-2.38c6.47-1.26 12.64-3.41 17.24-8.33 7.32-7.83 8.78-18.04 6.19-28.34Zm-243.17 7.22c.1-.05-.08.8-.16 1.19-.02-.6.02-1.13.16-1.19Zm.63 4.86c.05-.04.21.17.37.42-.24-.23-.4-.4-.37-.42Zm.62.81c.22.38.34.62 0 0Zm1.24 1.01h.03s.06.07.08.11a.573.573 0 0 0-.11-.11Zm216.95-1.51c-2.32 2.21-5.82 3.24-9.28 3.75-38.78 5.75-78.12 8.67-117.32 7.38-28.05-.96-55.81-4.07-83.59-8-2.72-.38-5.67-.88-7.54-2.89-3.53-3.78-1.79-11.4-.88-15.98.84-4.19 2.45-9.77 7.43-10.37 7.78-.91 16.81 2.37 24.5 3.54 9.26 1.41 18.56 2.55 27.89 3.4 39.82 3.63 80.31 3.06 119.96-2.24 7.22-.97 14.43-2.1 21.6-3.38 6.39-1.15 13.48-3.3 17.34 3.32 2.65 4.51 3 10.54 2.59 15.64a8.722 8.722 0 0 1-2.71 5.84Z" class="cls-1"/>
  <path d="M221.22 491.9c-1.19 2.27-2.83 4.26-4.92 5.94-2.09 1.68-4.52 3.05-7.3 4.11a36.54 36.54 0 0 1-8.39 2.13c-2.82.36-5.55.33-8.19-.1-2.65-.43-4.9-1.3-6.76-2.62l2.09-21.67c1.92-.66 4.33-1.34 7.25-2.03 2.91-.69 5.91-1.19 8.99-1.48 3.08-.3 5.99-.26 8.74.1s4.92 1.24 6.51 2.62c.86.79 1.59 1.65 2.19 2.57.6.92.96 1.88 1.09 2.87.33 2.77-.1 5.29-1.29 7.57Zm-30.3-46.16c1.39-.86 3.06-1.62 5.02-2.28 1.95-.66 3.96-1.12 6.01-1.38 2.05-.26 4.05-.3 6.01-.1 1.95.2 3.68.74 5.16 1.63 1.49.89 2.6 2.18 3.33 3.86.73 1.68.93 3.81.59 6.38-.26 2.05-1.08 3.78-2.43 5.2-1.36 1.42-3.01 2.61-4.97 3.56-1.95.96-4.02 1.72-6.21 2.27-2.19.56-4.29.98-6.31 1.24-2.02.26-3.77.43-5.26.49-1.49.07-2.47.1-2.93.1l1.99-20.98Zm41.02 32.16a20.233 20.233 0 0 0-4.27-6.09c-1.79-1.75-3.91-3.02-6.36-3.81 1.06-.86 2.1-2.21 3.13-4.06 1.03-1.85 1.9-3.86 2.63-6.04s1.23-4.37 1.49-6.58.16-4.11-.3-5.69c-1.13-3.96-2.9-7.06-5.32-9.3a19.766 19.766 0 0 0-8.44-4.65c-3.21-.85-6.75-1.04-10.63-.54-3.87.49-7.83 1.47-11.87 2.92 0-.33.03-.68.1-1.04.06-.36.1-.74.1-1.14 0-.99-.5-1.85-1.49-2.57-.99-.73-2.13-1.15-3.42-1.29-1.29-.13-2.55.15-3.78.84-1.22.69-2.07 1.96-2.53 3.81-.53 5.94-1.06 12.11-1.59 18.51-.53 6.4-1.09 12.87-1.69 19.4-.6 6.53-1.19 13.01-1.79 19.45-.6 6.43-1.19 12.62-1.79 18.56.2 1.78.69 3.17 1.49 4.16.79.99 1.72 1.58 2.78 1.78 1.06.2 2.17.01 3.33-.55 1.16-.56 2.17-1.53 3.03-2.92 2.65 1.45 5.63 2.39 8.94 2.82 3.31.43 6.67.43 10.08 0s6.77-1.24 10.08-2.43c3.31-1.19 6.32-2.67 9.04-4.45 2.72-1.78 5-3.81 6.86-6.09 1.85-2.28 3.08-4.73 3.67-7.37.6-2.71.76-5.41.5-8.12-.27-2.7-.93-5.21-1.99-7.52ZM328.85 530.15c-.36 2.18-.88 4.47-1.54 6.88s-1.44 4.6-2.33 6.58c-.89 1.98-1.89 3.58-2.98 4.8-1.09 1.22-2.27 1.73-3.53 1.54-.99-.13-1.62-.76-1.89-1.88-.27-1.12-.27-2.51 0-4.16.26-1.65.77-3.52 1.54-5.59.76-2.08 1.69-4.14 2.78-6.18 1.09-2.05 2.33-4.01 3.72-5.89 1.39-1.88 2.85-3.45 4.37-4.7.33.4.48 1.38.45 2.97-.04 1.58-.23 3.46-.6 5.64Zm33.67-42.95c-.89-.99-1.99-1.55-3.28-1.68-1.29-.13-2.6.59-3.92 2.18-.86 1.58-1.96 3.1-3.28 4.55-1.32 1.45-2.7 2.77-4.12 3.96-1.43 1.19-2.78 2.21-4.07 3.07-1.29.86-2.3 1.49-3.03 1.88-.27-2.11-.42-4.39-.45-6.83-.04-2.44.02-4.91.15-7.42.2-3.56.61-7.16 1.24-10.79.63-3.63 1.54-7.19 2.73-10.69 0-1.85-.43-3.35-1.29-4.5-.86-1.15-1.9-1.88-3.13-2.18-1.23-.3-2.48-.13-3.77.49-1.29.63-2.4 1.77-3.33 3.41-.79 2.18-1.7 4.62-2.73 7.32-1.03 2.71-2.19 5.46-3.48 8.26a81.404 81.404 0 0 1-4.32 8.16c-1.59 2.64-3.33 4.98-5.21 7.03-1.89 2.05-3.94 3.65-6.16 4.8s-4.62 1.67-7.2 1.53c-1.19-.33-2.06-1.22-2.58-2.67-.53-1.45-.85-3.27-.94-5.44-.1-2.18 0-4.57.3-7.18.3-2.61.7-5.2 1.19-7.77.5-2.57 1.04-5.01 1.64-7.32.6-2.31 1.16-4.26 1.69-5.84.8-1.91.8-3.51 0-4.8-.79-1.29-1.89-2.14-3.28-2.57-1.39-.43-2.85-.41-4.37.05-1.52.46-2.62 1.48-3.28 3.07-1.13 2.71-2.15 5.74-3.08 9.11-.93 3.37-1.67 6.85-2.23 10.44-.56 3.6-.88 7.16-.94 10.69v.68c-1.44 3.84-2.82 6.73-4.13 8.67-1.69 2.51-3.59 3.6-5.71 3.27-.93-.4-1.54-1.32-1.84-2.77-.3-1.45-.4-3.23-.3-5.34.1-2.11.35-4.5.75-7.17s.89-5.44 1.49-8.31 1.23-5.76 1.89-8.66c.66-2.9 1.26-5.64 1.79-8.22-.07-2.31-.75-4.07-2.04-5.29-1.29-1.22-3.1-1.7-5.41-1.44-1.59.66-2.77 1.52-3.53 2.57-.76 1.05-1.38 2.41-1.84 4.06-.27.86-.66 2.57-1.19 5.15-.53 2.57-1.21 5.53-2.04 8.86-.83 3.33-1.8 6.81-2.93 10.44-1.12 3.63-2.38 6.91-3.77 9.85-1.39 2.94-2.91 5.29-4.57 7.08-1.66 1.78-3.44 2.51-5.36 2.18-1.06-.2-1.74-1.29-2.04-3.27-.3-1.98-.35-4.42-.15-7.32.2-2.9.6-6.09 1.19-9.55.6-3.46 1.21-6.75 1.84-9.85.63-3.1 1.21-5.84 1.74-8.21.53-2.38.89-3.96 1.09-4.75 0-1.91-.43-3.45-1.29-4.6-.86-1.15-1.9-1.88-3.13-2.18-1.23-.3-2.48-.13-3.77.49-1.29.63-2.4 1.77-3.33 3.41-.33 1.78-.76 3.84-1.29 6.19-.53 2.34-1.04 4.75-1.54 7.22-.5 2.47-.96 4.9-1.39 7.27-.43 2.38-.75 4.45-.94 6.24-.13 1.38-.28 3.08-.45 5.1-.17 2.01-.25 4.14-.25 6.38s.17 4.47.5 6.68c.33 2.21.93 4.24 1.79 6.09.86 1.85 2.07 3.36 3.63 4.55 1.55 1.19 3.52 1.85 5.91 1.98 2.45.13 4.58-.05 6.41-.55 1.82-.49 3.47-1.27 4.97-2.33 1.49-1.05 2.85-2.31 4.07-3.76 1.22-1.45 2.43-3.03 3.62-4.75 1.13 2.51 2.58 4.45 4.37 5.84 1.79 1.38 3.68 2.21 5.66 2.47 1.98.26 4.01-.02 6.06-.84s3.91-2.23 5.56-4.21c1.09-1.21 2.12-2.59 3.08-4.12.41.71.85 1.4 1.34 2.04 1.62 2.11 3.82 3.56 6.61 4.36 2.98.79 5.89.93 8.74.4 2.85-.53 5.56-1.49 8.14-2.87 2.58-1.39 4.98-3.05 7.2-5 2.22-1.95 4.15-3.97 5.81-6.09-.07 1.52-.1 2.95-.1 4.31s-.03 2.82-.1 4.4c-3.31 2.31-6.44 5.08-9.39 8.31a66.257 66.257 0 0 0-7.75 10.34c-2.22 3.66-3.96 7.37-5.21 11.13-1.26 3.76-1.87 7.28-1.84 10.54.03 3.26.81 6.12 2.33 8.56 1.52 2.44 4 4.19 7.45 5.25 3.58 1.12 6.72 1.15 9.44.1 2.71-1.06 5.08-2.81 7.1-5.25 2.02-2.44 3.68-5.39 4.97-8.86 1.29-3.46 2.32-7.08 3.08-10.84.76-3.76 1.24-7.46 1.44-11.08.2-3.63.2-6.86 0-9.7 5.7-2.37 10.36-5.38 14-9.01 3.64-3.63 6.65-7.45 9.04-11.48.73-.99.98-2.18.75-3.56-.23-1.39-.8-2.57-1.69-3.56ZM487.82 480.87c.2-1.52.5-3.12.89-4.8.4-1.68.89-3.32 1.49-4.9.59-1.58 1.29-2.95 2.09-4.11.79-1.15 1.64-1.98 2.53-2.47.89-.49 1.8-.44 2.73.15.99.6 1.6 1.85 1.84 3.76.23 1.92 0 3.96-.7 6.14-.7 2.18-1.94 4.22-3.72 6.14-1.79 1.91-4.21 3.17-7.25 3.76-.13-.92-.1-2.14.1-3.66Zm34.41 4.06c-1.09-.33-2.13-.36-3.13-.1-.99.26-1.62.96-1.89 2.08-.53 2.11-1.38 4.27-2.54 6.48a34.04 34.04 0 0 1-4.27 6.29 31.548 31.548 0 0 1-5.71 5.24c-2.12 1.52-4.34 2.61-6.66 3.27-2.32.73-4.24.81-5.76.25a7.296 7.296 0 0 1-3.63-2.87c-.89-1.35-1.54-2.99-1.94-4.9-.4-1.91-.63-3.89-.7-5.94 3.77.26 7.13-.41 10.08-2.03 2.94-1.61 5.44-3.76 7.5-6.43 2.05-2.67 3.61-5.67 4.67-9.01 1.06-3.33 1.66-6.65 1.79-9.95.07-3.1-.4-5.72-1.39-7.87-.99-2.14-2.33-3.81-4.02-5-1.69-1.19-3.63-1.88-5.81-2.08-2.18-.2-4.4.1-6.66.89-2.72.92-5.02 2.42-6.9 4.5-1.89 2.08-3.46 4.49-4.72 7.22-1.26 2.74-2.25 5.69-2.98 8.86a79.82 79.82 0 0 0-1.59 9.35c-.3 2.75-.46 5.39-.51 7.93-.14.32-.28.63-.43.98a59.224 59.224 0 0 1-3.58 6.88c-1.36 2.24-2.87 4.12-4.52 5.64-1.66 1.52-3.38 2.05-5.16 1.58-1.06-.26-1.64-1.49-1.74-3.66-.1-2.18.01-4.88.35-8.12.33-3.23.71-6.73 1.14-10.49.43-3.76.64-7.35.64-10.79 0-2.97-.56-5.82-1.69-8.56s-2.67-5.01-4.62-6.83a14.557 14.557 0 0 0-6.8-3.61c-2.58-.6-5.36-.2-8.34 1.19-2.98 1.39-5.35 3.33-7.1 5.84a73.27 73.27 0 0 0-4.82 7.92c-.53-2.11-1.31-4.07-2.33-5.89-1.03-1.81-2.28-3.4-3.77-4.75a17.132 17.132 0 0 0-5.02-3.17c-1.85-.76-3.81-1.14-5.86-1.14s-3.82.38-5.51 1.14c-1.69.76-3.23 1.73-4.62 2.92a25.18 25.18 0 0 0-3.77 4.01 47.445 47.445 0 0 0-2.98 4.4 81.16 81.16 0 0 0-.45-4.5c-.17-1.29-.47-2.37-.89-3.26-.43-.89-1.04-1.57-1.84-2.03-.8-.46-1.92-.69-3.38-.69-.73 0-1.46.15-2.19.44-.73.3-1.38.71-1.94 1.24s-.99 1.17-1.29 1.93c-.3.76-.38 1.63-.25 2.62.07.73.25 1.6.55 2.62.3 1.02.58 2.36.84 4.01.27 1.65.48 3.65.65 5.99.17 2.34.21 5.21.15 8.61-.07 3.4-.31 7.37-.75 11.93-.43 4.55-1.11 9.83-2.04 15.83-.13 1.39.4 2.51 1.59 3.37 1.19.86 2.55 1.35 4.07 1.48 1.52.13 2.96-.13 4.32-.79 1.36-.66 2.14-1.82 2.33-3.46.2-3.1.58-6.4 1.14-9.9.56-3.5 1.26-6.96 2.09-10.39.83-3.43 1.77-6.7 2.83-9.8 1.06-3.1 2.24-5.84 3.53-8.21 1.29-2.38 2.63-4.27 4.02-5.69 1.39-1.42 2.85-2.13 4.37-2.13 1.85 0 3.29.84 4.32 2.52 1.03 1.68 1.75 3.85 2.19 6.48.43 2.64.63 5.53.6 8.66-.04 3.13-.17 6.15-.4 9.05-.23 2.9-.5 5.49-.8 7.77-.3 2.28-.51 3.84-.64 4.7 0 1.52.58 2.72 1.74 3.61 1.16.89 2.45 1.42 3.87 1.58 1.43.17 2.76-.1 4.02-.79 1.26-.69 1.99-1.86 2.19-3.51.66-4.75 1.57-9.52 2.73-14.3 1.16-4.78 2.48-9.07 3.97-12.87 1.49-3.79 3.14-6.9 4.97-9.3 1.82-2.41 3.76-3.61 5.81-3.61 1.06 0 1.87.73 2.43 2.18.56 1.45.85 3.43.85 5.94 0 1.85-.15 3.75-.45 5.69-.3 1.95-.65 3.96-1.04 6.04-.4 2.08-.75 4.21-1.04 6.38-.3 2.18-.45 4.45-.45 6.83 0 1.65.17 3.56.5 5.74.33 2.18.96 4.24 1.89 6.18.93 1.95 2.2 3.6 3.83 4.95 1.62 1.35 3.69 2.03 6.2 2.03 3.78 0 7.12-.81 10.03-2.42 2.91-1.62 5.41-3.73 7.5-6.33.11-.14.21-.28.31-.42.16.39.3.79.48 1.16 1.42 2.9 3.36 5.15 5.81 6.73 2.45 1.58 5.33 2.46 8.64 2.62 3.31.16 6.92-.45 10.83-1.83 2.91-1.06 5.44-2.38 7.6-3.96 2.15-1.58 4.09-3.51 5.81-5.79 1.72-2.28 3.29-4.9 4.72-7.87 1.43-2.97 2.86-6.37 4.32-10.2.27-1.05.02-1.99-.74-2.82-.76-.82-1.69-1.4-2.78-1.73ZM209.87 592.44c-.32 1.89-.75 3.98-1.3 6.25a77.68 77.68 0 0 1-2.08 7.07c-.84 2.44-1.87 4.63-3.09 6.59-1.22 1.96-2.62 3.51-4.2 4.66-1.58 1.15-3.39 1.63-5.45 1.44-1.03-.13-1.82-.83-2.37-2.12-.55-1.28-.84-2.92-.87-4.9-.03-1.99.14-4.17.53-6.54s.98-4.7 1.79-6.97c.8-2.27 1.78-4.37 2.94-6.3 1.16-1.92 2.49-3.41 4.01-4.47 1.51-1.06 3.17-1.55 4.97-1.49 1.8.06 3.73.96 5.79 2.69-.13.83-.35 2.2-.68 4.09Zm34.31 7.36c-1-.51-2.03-.62-3.09-.34-1.06.29-1.82 1.27-2.27 2.93-.26 1.8-.84 3.91-1.74 6.35-.9 2.44-2.01 4.75-3.33 6.92-1.32 2.18-2.83 3.99-4.54 5.43-1.7 1.44-3.52 2.1-5.45 1.97-1.61-.13-2.74-.94-3.38-2.45-.65-1.51-.98-3.4-1.01-5.67-.03-2.27.19-4.84.67-7.69.48-2.85 1.06-5.69 1.74-8.51.68-2.82 1.37-5.53 2.08-8.12.71-2.6 1.28-4.79 1.74-6.59.51-1.6.35-2.96-.48-4.09-.84-1.12-1.88-1.92-3.14-2.4-1.26-.48-2.53-.61-3.81-.38-1.29.22-2.12.91-2.51 2.07-3.8-3.27-7.45-5.03-10.95-5.29-3.51-.26-6.74.51-9.7 2.31-2.96 1.79-5.58 4.39-7.86 7.79-2.28 3.4-4.13 7.1-5.55 11.11s-2.3 8.09-2.65 12.26c-.35 4.17-.08 7.97.82 11.4s2.49 6.24 4.78 8.41c2.28 2.18 5.39 3.27 9.31 3.27 1.74 0 3.41-.35 5.02-1.06 1.61-.71 3.09-1.54 4.44-2.5s2.54-1.97 3.57-3.03c1.03-1.06 1.83-1.94 2.41-2.64.45 2.31 1.19 4.26 2.22 5.87 1.03 1.6 2.2 2.92 3.52 3.94 1.32 1.02 2.7 1.78 4.15 2.26 1.45.48 2.85.72 4.2.72 3.03 0 5.85-1.03 8.49-3.08 2.64-2.05 5-4.57 7.09-7.55 2.09-2.98 3.81-6.12 5.16-9.42s2.25-6.23 2.7-8.8c.45-.96.37-1.97-.24-3.03-.61-1.06-1.42-1.84-2.41-2.36ZM417.9 652.88c-.55 2.18-1.4 4.02-2.56 5.53-1.16 1.51-2.6 2.29-4.34 2.36-1.09.06-1.93-.52-2.51-1.73-.58-1.22-.98-2.79-1.21-4.71-.23-1.92-.32-4.07-.29-6.44.03-2.37.13-4.71.29-7.02.16-2.31.35-4.46.58-6.44.22-1.99.4-3.52.53-4.62 2.19.26 4.01 1.2 5.45 2.84 1.45 1.63 2.56 3.57 3.33 5.82.77 2.24 1.22 4.66 1.35 7.26.13 2.6-.08 4.98-.63 7.16Zm-34.94 0c-.55 2.18-1.4 4.02-2.56 5.53s-2.61 2.29-4.34 2.36c-1.09.06-1.93-.52-2.51-1.73-.58-1.22-.98-2.79-1.21-4.71-.23-1.92-.32-4.07-.29-6.44.03-2.37.13-4.71.29-7.02.16-2.31.35-4.46.58-6.44.23-1.99.4-3.52.53-4.62 2.19.26 4.01 1.2 5.45 2.84 1.45 1.63 2.56 3.57 3.33 5.82.77 2.24 1.22 4.66 1.35 7.26.13 2.6-.08 4.98-.63 7.16Zm-35.85-54.61c-.07 1.54-.21 2.9-.44 4.09s-.53 1.94-.92 2.26c-.71-.39-1.58-1.38-2.61-2.98-1.03-1.6-1.83-3.41-2.41-5.43-.58-2.02-.76-4-.53-5.96.22-1.95 1.24-3.48 3.04-4.57.71-.38 1.32-.24 1.83.43.52.67.93 1.65 1.26 2.93.32 1.28.54 2.76.67 4.42.13 1.67.16 3.27.1 4.81Zm-8.54 19.18c-1 1.06-2.11 1.97-3.33 2.74-1.22.77-2.48 1.35-3.76 1.73-1.29.39-2.45.48-3.47.29-2.89-.58-5.11-1.83-6.66-3.75-1.54-1.92-2.53-4.18-2.94-6.78-.42-2.6-.37-5.37.14-8.32s1.38-5.69 2.6-8.22c1.22-2.53 2.7-4.71 4.44-6.54 1.74-1.83 3.64-2.96 5.69-3.41-.77 3.27-1.03 6.65-.77 10.15.26 3.49 1.1 6.78 2.51 9.86.9 1.86 1.98 3.56 3.23 5.1 1.26 1.54 2.78 2.85 4.59 3.94-.52 1.09-1.27 2.16-2.27 3.22Zm106.78-18.22c.19-1.47.48-3.03.87-4.67.38-1.63.87-3.22 1.45-4.76.58-1.54 1.26-2.87 2.03-3.99.77-1.12 1.59-1.92 2.46-2.4s1.75-.43 2.65.14c.97.58 1.56 1.8 1.79 3.65.23 1.86 0 3.85-.67 5.96-.68 2.12-1.88 4.1-3.62 5.96-1.74 1.86-4.09 3.08-7.05 3.65-.13-.9-.1-2.08.1-3.56Zm38.9 0c.19-1.47.48-3.03.87-4.67.39-1.63.87-3.22 1.45-4.76.58-1.54 1.25-2.87 2.02-3.99s1.59-1.92 2.46-2.4c.87-.48 1.75-.43 2.65.14.97.58 1.56 1.8 1.79 3.65.23 1.86 0 3.85-.67 5.96-.68 2.12-1.88 4.1-3.62 5.96-1.74 1.86-4.09 3.08-7.05 3.65-.13-.9-.1-2.08.1-3.56Zm36.14 5.62c-.74-.8-1.64-1.36-2.7-1.68-1.06-.32-2.08-.35-3.04-.1-.96.26-1.58.93-1.83 2.02-.52 2.05-1.33 4.15-2.46 6.3-1.13 2.15-2.51 4.18-4.15 6.11s-3.49 3.62-5.55 5.1c-2.06 1.47-4.22 2.53-6.47 3.17-2.25.71-4.12.79-5.6.24a6.977 6.977 0 0 1-3.52-2.79c-.87-1.32-1.49-2.9-1.88-4.76-.38-1.86-.61-3.78-.67-5.77 3.67.26 6.93-.4 9.79-1.97 2.86-1.57 5.29-3.66 7.29-6.25 1.99-2.59 3.5-5.51 4.53-8.75 1.03-3.24 1.61-6.46 1.74-9.66.06-3.01-.39-5.56-1.35-7.65-.96-2.08-2.27-3.7-3.91-4.86-1.64-1.16-3.52-1.83-5.65-2.02-2.12-.19-4.28.1-6.47.86-2.64.9-4.87 2.36-6.71 4.38-1.83 2.02-3.36 4.36-4.59 7.02-1.22 2.66-2.19 5.53-2.9 8.61-.71 3.08-1.22 6.11-1.54 9.09-.31 2.89-.48 5.66-.52 8.31-.24.53-.5 1.06-.78 1.59a33.435 33.435 0 0 1-4.15 6.11 31.253 31.253 0 0 1-5.55 5.1c-2.06 1.47-4.22 2.53-6.47 3.17-2.25.71-4.12.79-5.6.24a6.936 6.936 0 0 1-3.52-2.79c-.87-1.32-1.5-2.9-1.88-4.76-.39-1.86-.61-3.78-.68-5.77 3.67.26 6.93-.4 9.8-1.97 2.86-1.57 5.29-3.66 7.28-6.25 1.99-2.59 3.51-5.51 4.54-8.75 1.03-3.24 1.61-6.46 1.74-9.66.06-3.01-.38-5.56-1.35-7.65-.97-2.08-2.27-3.7-3.91-4.86-1.64-1.16-3.52-1.83-5.64-2.02-2.12-.19-4.28.1-6.47.86-2.64.9-4.88 2.36-6.71 4.38s-3.36 4.36-4.59 7.02c-1.22 2.66-2.19 5.53-2.89 8.61-.71 3.08-1.22 6.11-1.54 9.09-.18 1.68-.3 3.31-.39 4.91-.62.53-1.23 1.06-1.87 1.58-2.22 1.8-4.55 3.41-7 4.86a43.907 43.907 0 0 1-7.62 3.56c-2.64.93-5.34 1.49-8.11 1.68l5.98-63.85c.39-1.35.19-2.53-.58-3.56a5.87 5.87 0 0 0-2.99-2.12c-1.22-.39-2.53-.35-3.91.1-1.38.45-2.52 1.48-3.43 3.08-.45 2.44-.92 5.77-1.4 10-.48 4.23-.97 8.85-1.45 13.85s-.97 10.16-1.45 15.48-.9 10.29-1.26 14.91c-.02.2-.03.39-.04.59-.56.48-1.11.96-1.69 1.43-2.22 1.8-4.55 3.41-7 4.86a43.907 43.907 0 0 1-7.62 3.56c-2.64.93-5.34 1.49-8.11 1.68l5.98-63.85c.39-1.35.19-2.53-.58-3.56a5.87 5.87 0 0 0-2.99-2.12c-1.22-.39-2.53-.35-3.91.1-1.38.45-2.52 1.48-3.43 3.08-.45 2.44-.92 5.77-1.4 10-.49 4.23-.97 8.85-1.45 13.85s-.96 10.16-1.45 15.48c-.48 5.32-.9 10.29-1.25 14.91 0 .09-.01.18-.02.27-1.01.47-2.11.88-3.31 1.22-1.22.35-2.6.56-4.15.63.26-1.16.47-2.44.63-3.85.16-1.41.29-2.88.39-4.42.1-1.54.13-3.08.1-4.62s-.11-2.95-.24-4.23c-.32-2.75-.92-5.37-1.79-7.84-.87-2.47-2.04-4.53-3.52-6.2s-3.33-2.79-5.55-3.36c-2.22-.58-4.81-.39-7.77.58-4.38-.58-8.32-.17-11.82 1.2-3.51 1.38-6.55 3.38-9.12 6.01-2.57 2.63-4.68 5.72-6.32 9.28-1.64 3.56-2.74 7.21-3.28 10.96-.23 1.59-.34 3.17-.38 4.75-1 2.03-2.09 3.81-3.29 5.3-1.7 2.12-3.47 3.85-5.31 5.19-1.83 1.35-3.65 2.37-5.45 3.08-1.8.71-3.41 1.19-4.83 1.44-1.67.32-3.28.35-4.83.1-1.54-.26-2.96-.99-4.25-2.21-1.03-.9-1.82-2.34-2.37-4.33-.55-1.99-.87-4.25-.96-6.78-.1-2.53 0-5.18.29-7.93.29-2.76.79-5.37 1.5-7.84.71-2.47 1.61-4.68 2.7-6.64 1.09-1.95 2.38-3.35 3.86-4.18.83.13 1.35.62 1.54 1.49.19.87.24 1.89.14 3.08-.09 1.19-.24 2.4-.43 3.65s-.29 2.29-.29 3.13c.32 1.73.95 3.08 1.88 4.04.93.96 1.98 1.52 3.14 1.68 1.16.16 2.3-.11 3.43-.82 1.12-.7 2.04-1.83 2.75-3.37.06.06.16.1.29.1l1.35-12.21c.38-1.67.13-3.14-.77-4.42-.9-1.28-2.09-2.02-3.57-2.21-1.87-2.69-4.39-4.12-7.58-4.28-3.18-.16-6.45.88-9.79 3.13-2.06 1.48-3.88 3.51-5.45 6.11-1.58 2.6-2.86 5.48-3.86 8.65s-1.71 6.52-2.12 10.05c-.42 3.53-.5 6.96-.24 10.29.26 3.34.85 6.48 1.79 9.42.93 2.95 2.23 5.42 3.91 7.4 1.42 1.73 3.02 3 4.82 3.8 1.8.8 3.68 1.3 5.65 1.49 1.96.19 3.91.11 5.84-.24 1.93-.35 3.76-.85 5.5-1.49 2.25-.83 4.57-1.89 6.95-3.17s4.66-2.82 6.85-4.62a38.32 38.32 0 0 0 3.33-3.08c.49 1.21 1.03 2.37 1.69 3.46 1.74 2.88 4.08 5.22 7.05 7.02 2.96 1.79 6.59 2.66 10.9 2.6 4.63-.06 8.91-1.23 12.84-3.51 3.93-2.27 7.14-5.63 9.65-10.05 3.76 0 7.46-.62 11.09-1.84-.03.39-.06.8-.09 1.17-.26 3.4-.39 5.7-.39 6.92-.06 2.12-.21 4.73-.43 7.84-.23 3.11-.37 6.38-.43 9.81-.06 3.43.06 6.89.39 10.39.32 3.49 1 6.67 2.03 9.52 1.03 2.85 2.49 5.27 4.39 7.26 1.9 1.98 4.39 3.17 7.48 3.56 3.28.45 6.11-.13 8.49-1.73s4.31-3.8 5.79-6.59c1.48-2.79 2.52-6.01 3.14-9.66.61-3.66.79-7.33.53-11.01-.26-3.69-.94-7.16-2.03-10.43-1.09-3.27-2.61-5.96-4.54-8.08 1.16-.32 2.54-.93 4.15-1.83 1.61-.9 3.26-1.91 4.97-3.03.42-.28.83-.57 1.25-.85-.16 2.27-.24 3.89-.24 4.84-.06 2.12-.21 4.73-.43 7.84-.22 3.11-.37 6.38-.43 9.81-.06 3.43.06 6.89.39 10.39.32 3.49 1 6.67 2.03 9.52 1.03 2.85 2.49 5.27 4.39 7.26 1.9 1.98 4.39 3.17 7.48 3.56 3.28.45 6.11-.13 8.49-1.73s4.31-3.8 5.79-6.59c1.48-2.79 2.52-6.01 3.14-9.66.61-3.66.79-7.33.53-11.01-.26-3.69-.93-7.16-2.03-10.43-1.1-3.27-2.61-5.96-4.54-8.08 1.16-.32 2.54-.93 4.15-1.83 1.61-.9 3.27-1.91 4.97-3.03.89-.58 1.77-1.18 2.64-1.8.33 3.14 1.04 5.89 2.18 8.2 1.38 2.82 3.27 5 5.65 6.54 2.38 1.54 5.18 2.39 8.4 2.55 3.22.16 6.72-.43 10.52-1.78 2.83-1.02 5.29-2.31 7.38-3.85s3.97-3.41 5.65-5.63c.1-.13.19-.27.28-.4.3.9.63 1.76 1.02 2.56 1.38 2.82 3.27 5 5.65 6.54 2.38 1.54 5.18 2.39 8.4 2.55 3.22.16 6.72-.43 10.52-1.78 2.83-1.02 5.29-2.31 7.38-3.85s3.97-3.41 5.65-5.63c1.67-2.21 3.2-4.76 4.58-7.65 1.38-2.89 2.78-6.19 4.2-9.9.26-1.02.01-1.94-.72-2.74Z" class="cls-4"/>
</svg>
