<svg 
version="1.1"
xmlns="http://www.w3.org/2000/svg" 
viewBox="0 0 822.57 691.32">
  <defs>
    <style>.cls-1{fill:#ededee;}</style>
  </defs>
  <g id="logoSVG" data-name="logoSVG">
      <path class="cls-1" d="M311.62,75.13l33.11,59.13,79,141L519.2,445.75l82.55,147.39c13.43,24,26.56,48.14,40.29,71.93l.55,1c6.07,10.84,18,19.7,29.88,23s27.91,1.8,38.53-5,20.07-17.14,23-29.89c3-13.26,1.7-26.48-5-38.52l-33.12-59.13-79-141L521.35,245,438.8,97.56c-13.43-24-26.56-48.13-40.29-71.93-.19-.32-.36-.65-.55-1-6.07-10.84-18-19.7-29.88-23s-27.9-1.81-38.53,5-20.07,17.13-23,29.88c-3,13.27-1.71,26.48,5,38.53Z"/>
      <path class="cls-1" d="M728.94,666.43l29.28-52.29L805,530.64l10.86-19.39c6.41-11.45,8.55-25.78,5-38.52-3.19-11.6-12.16-24.17-23-29.89-11.6-6.13-25.66-9.2-38.53-5-12.27,4-23.43,11.46-29.88,23l-29.28,52.29-46.78,83.5L642.59,616c-6.42,11.45-8.55,25.78-5,38.53,3.19,11.59,12.16,24.16,23,29.88,11.6,6.13,25.66,9.2,38.52,5,12.28-4,23.44-11.46,29.89-23Z"/>
      <path class="cls-1" d="M157.91,513.45l24-43.7L239.15,365.3l69.49-126.74,59.84-109.13c9.69-17.67,19.56-35.26,29.07-53,.14-.25.28-.49.41-.74,6.35-11.58,8.59-25.67,5-38.53C399.81,25.53,390.84,13,380,7.25c-11.61-6.13-25.67-9.21-38.53-5-12.21,4-23.56,11.44-29.88,23l-24,43.7L230.38,173.34,160.89,300.07,101.05,409.2c-9.69,17.67-19.57,35.26-29.08,53-.13.25-.27.5-.41.75-6.34,11.57-8.58,25.66-5,38.52,3.2,11.6,12.16,24.17,23,29.89,11.6,6.13,25.66,9.2,38.53,5,12.21-4,23.55-11.45,29.88-23Z"/>
      <path class="cls-1" d="M114.74,538.21l88.18-.13,140.48-.2,32.15,0a51.63,51.63,0,0,0,35.36-14.64c8.67-8.68,15.2-22.91,14.64-35.36-.58-12.93-4.83-26.34-14.64-35.36s-21.82-14.66-35.36-14.64l-88.18.13-140.48.2-32.15,0a51.62,51.62,0,0,0-35.36,14.65c-8.67,8.67-15.2,22.9-14.64,35.35.58,12.93,4.82,26.34,14.64,35.36s21.82,14.66,35.36,14.64Z"/>
      <path class="cls-1" d="M50,690.81h109.7l173.73,0H373.6A51.61,51.61,0,0,0,409,676.14c8.67-8.68,15.2-22.9,14.64-35.36-.58-12.93-4.82-26.34-14.64-35.35s-21.81-14.65-35.36-14.65H50a51.56,51.56,0,0,0-35.35,14.64C6,614.12-.52,628.35,0,640.81c.58,12.93,4.83,26.34,14.65,35.35S36.49,690.81,50,690.81Z"/>
  </g>
</svg>